<?xml version="1.0" encoding="UTF-8" standalone="no"?>
<svg
   xmlns:dc="http://purl.org/dc/elements/1.1/"
   xmlns:cc="http://creativecommons.org/ns#"
   xmlns:rdf="http://www.w3.org/1999/02/22-rdf-syntax-ns#"
   xmlns:svg="http://www.w3.org/2000/svg"
   xmlns="http://www.w3.org/2000/svg"
   xmlns:sodipodi="http://sodipodi.sourceforge.net/DTD/sodipodi-0.dtd"
   xmlns:inkscape="http://www.inkscape.org/namespaces/inkscape"
   width="150"
   height="150"
   viewBox="0 0 150.00001 150.00002"
   id="svg2"
   version="1.1"
   inkscape:version="0.91 r13725"
   sodipodi:docname="launcher_icon_edge_150.svg">
  <metadata
     id="metadata12">
    <rdf:RDF>
      <cc:Work
         rdf:about="">
        <dc:format>image/svg+xml</dc:format>
        <dc:type
           rdf:resource="http://purl.org/dc/dcmitype/StillImage" />
        <dc:title></dc:title>
      </cc:Work>
    </rdf:RDF>
  </metadata>
  <sodipodi:namedview
     pagecolor="#ffffff"
     bordercolor="#666666"
     borderopacity="1"
     objecttolerance="10"
     gridtolerance="10"
     guidetolerance="10"
     inkscape:pageopacity="0"
     inkscape:pageshadow="2"
     inkscape:window-width="1855"
     inkscape:window-height="1056"
     id="namedview10"
     showgrid="true"
     inkscape:zoom="4.39"
     inkscape:cx="99.630996"
     inkscape:cy="85.239852"
     inkscape:window-x="65"
     inkscape:window-y="24"
     inkscape:window-maximized="1"
     inkscape:current-layer="svg2">
    <inkscape:grid
       type="xygrid"
       id="grid4142" />
  </sodipodi:namedview>
  <defs
     id="defs4">
    <clipPath
       id="clipPath6">
      <path
         d="m 489.73333,21.333331 0,69.333332 69.33333,0 0,-69.333332 -69.33333,0 z m 13.11917,9.013334 43.095,0 c 2.27623,0 4.10583,1.829606 4.10583,4.105833 l 0,43.094999 c 0,2.276227 -1.8296,4.105833 -4.10583,4.105833 l -43.095,0 c -2.27623,0 -4.10583,-1.829606 -4.10583,-4.105833 l 0,-43.094999 c 0,-2.276227 1.8296,-4.105833 4.10583,-4.105833 z"
         id="path8"
         inkscape:connector-curvature="0" />
    </clipPath>
  </defs>
  <path
     style="opacity:0.75;fill:#000000;fill-opacity:1"
     d="M 15 0 C 6.6900036 0 0 6.6900036 0 15 L 0 135 C 0 143.31 6.6900036 150 15 150 L 135 150 C 143.31 150 150 143.31 150 135 L 150 15 C 150 6.6900036 143.31 0 135 0 L 15 0 z M 15.800781 1 L 134.19922 1 C 142.39841 1 149 7.6015853 149 15.800781 L 149 134.19922 C 149 142.39841 142.39841 149 134.19922 149 L 15.800781 149 C 7.6015853 149 1 142.39841 1 134.19922 L 1 15.800781 C 1 7.6015853 7.6015853 1 15.800781 1 z "
     id="rect4140" />
</svg>
