<?xml version="1.0" encoding="UTF-8" standalone="no"?>
<svg
   xmlns:dc="http://purl.org/dc/elements/1.1/"
   xmlns:cc="http://creativecommons.org/ns#"
   xmlns:rdf="http://www.w3.org/1999/02/22-rdf-syntax-ns#"
   xmlns:svg="http://www.w3.org/2000/svg"
   xmlns="http://www.w3.org/2000/svg"
   xmlns:sodipodi="http://sodipodi.sourceforge.net/DTD/sodipodi-0.dtd"
   xmlns:inkscape="http://www.inkscape.org/namespaces/inkscape"
   width="19"
   height="19"
   viewBox="0 0 19.000001 19.000003"
   id="svg2"
   version="1.1"
   inkscape:version="0.91 r13725"
   sodipodi:docname="launcher_arrow_outline_19.svg">
  <metadata
     id="metadata12">
    <rdf:RDF>
      <cc:Work
         rdf:about="">
        <dc:format>image/svg+xml</dc:format>
        <dc:type
           rdf:resource="http://purl.org/dc/dcmitype/StillImage" />
        <dc:title />
      </cc:Work>
    </rdf:RDF>
  </metadata>
  <sodipodi:namedview
     pagecolor="#ffffff"
     bordercolor="#666666"
     borderopacity="1"
     objecttolerance="10"
     gridtolerance="10"
     guidetolerance="10"
     inkscape:pageopacity="0"
     inkscape:pageshadow="2"
     inkscape:window-width="1859"
     inkscape:window-height="1056"
     id="namedview10"
     showgrid="true"
     inkscape:zoom="17.56"
     inkscape:cx="-13.191344"
     inkscape:cy="-2.1831507"
     inkscape:window-x="61"
     inkscape:window-y="24"
     inkscape:window-maximized="1"
     inkscape:current-layer="svg2">
    <inkscape:grid
       type="xygrid"
       id="grid4142" />
  </sodipodi:namedview>
  <defs
     id="defs4">
    <clipPath
       id="clipPath6">
      <path
         d="m 489.73333,21.333331 0,69.333332 69.33333,0 0,-69.333332 -69.33333,0 z m 13.11917,9.013334 43.095,0 c 2.27623,0 4.10583,1.829606 4.10583,4.105833 l 0,43.094999 c 0,2.276227 -1.8296,4.105833 -4.10583,4.105833 l -43.095,0 c -2.27623,0 -4.10583,-1.829606 -4.10583,-4.105833 l 0,-43.094999 c 0,-2.276227 1.8296,-4.105833 4.10583,-4.105833 z"
         id="path8"
         inkscape:connector-curvature="0" />
    </clipPath>
  </defs>
  <rect
     style="opacity:1;fill:#008080;fill-opacity:0.85"
     id="rect4140"
     width="62.000011"
     height="62"
     x="115.90458"
     y="-39.023872"
     rx="4.6499953"
     ry="4.6499953" />
  <rect
     style="opacity:1;fill:#ffffff;fill-opacity:0.23999999"
     id="rect4477"
     width="9.5901566"
     height="9.5901566"
     x="-15.459381"
     y="5.9774394"
     rx="0"
     ry="0"
     transform="matrix(0.89644114,-0.44316281,0.89644114,0.44316281,0,0)" />
  <path
     style="opacity:1;fill:#0e0e0f;fill-opacity:1"
     d="M 0.09765625,5.2294955 -8.5,9.4794955 0.09765625,13.729495 8.6933594,9.4794955 l -8.59570315,-4.25 z m 0.03125,0.451172 7.58593755,3.75 -7.58593755,3.7499995 -7.58593745,-3.7499995 7.58593745,-3.75 z"
     id="rect4477-2"
     inkscape:connector-curvature="0" />
</svg>
