<?xml version="1.0" encoding="UTF-8" standalone="no"?>
<svg
   xmlns:dc="http://purl.org/dc/elements/1.1/"
   xmlns:cc="http://creativecommons.org/ns#"
   xmlns:rdf="http://www.w3.org/1999/02/22-rdf-syntax-ns#"
   xmlns:svg="http://www.w3.org/2000/svg"
   xmlns="http://www.w3.org/2000/svg"
   xmlns:sodipodi="http://sodipodi.sourceforge.net/DTD/sodipodi-0.dtd"
   xmlns:inkscape="http://www.inkscape.org/namespaces/inkscape"
   width="54"
   height="54"
   viewBox="0 0 54.000004 54.000007"
   id="svg2"
   version="1.1"
   inkscape:version="0.91 r13725"
   sodipodi:docname="launcher_icon_shine_54.svg">
  <metadata
     id="metadata12">
    <rdf:RDF>
      <cc:Work
         rdf:about="">
        <dc:format>image/svg+xml</dc:format>
        <dc:type
           rdf:resource="http://purl.org/dc/dcmitype/StillImage" />
        <dc:title></dc:title>
      </cc:Work>
    </rdf:RDF>
  </metadata>
  <sodipodi:namedview
     pagecolor="#ffffff"
     bordercolor="#666666"
     borderopacity="1"
     objecttolerance="10"
     gridtolerance="10"
     guidetolerance="10"
     inkscape:pageopacity="0"
     inkscape:pageshadow="2"
     inkscape:window-width="1855"
     inkscape:window-height="1056"
     id="namedview10"
     showgrid="true"
     inkscape:zoom="5.03"
     inkscape:cx="65.315273"
     inkscape:cy="85.239852"
     inkscape:window-x="65"
     inkscape:window-y="24"
     inkscape:window-maximized="1"
     inkscape:current-layer="svg2">
    <inkscape:grid
       type="xygrid"
       id="grid4142" />
  </sodipodi:namedview>
  <defs
     id="defs4">
    <clipPath
       id="clipPath6">
      <path
         d="m 489.73333,21.333331 0,69.333332 69.33333,0 0,-69.333332 -69.33333,0 z m 13.11917,9.013334 43.095,0 c 2.27623,0 4.10583,1.829606 4.10583,4.105833 l 0,43.094999 c 0,2.276227 -1.8296,4.105833 -4.10583,4.105833 l -43.095,0 c -2.27623,0 -4.10583,-1.829606 -4.10583,-4.105833 l 0,-43.094999 c 0,-2.276227 1.8296,-4.105833 4.10583,-4.105833 z"
         id="path8"
         inkscape:connector-curvature="0" />
    </clipPath>
  </defs>
  <g
     id="g4395"
     transform="matrix(0.35135139,0,0,0.35135139,0.64864861,0.64863056)">
    <path
       id="rect4140-71-98"
       d="M 18.199219,4 C 10.332422,4 4,10.332422 4,18.199219 L 4,131.80078 C 4,139.66758 10.332422,146 18.199219,146 l 113.601561,0 C 139.66758,146 146,139.66758 146,131.80078 L 146,18.199219 C 146,10.332422 139.66758,4 131.80078,4 L 18.199219,4 Z M 19,5 131,5 c 7.756,0 14,6.244004 14,14 l 0,112 c 0,7.756 -6.244,14 -14,14 L 19,145 C 11.244004,145 5,138.756 5,131 L 5,19 C 5,11.244004 11.244004,5 19,5 Z"
       style="opacity:1;fill:#ffffff;fill-opacity:0.03999999"
       inkscape:connector-curvature="0" />
    <path
       id="rect4140-7"
       d="M 16.599609,2 C 8.5112133,2 2,8.5112133 2,16.599609 L 2,133.40039 C 2,141.48879 8.5112133,148 16.599609,148 l 116.800781,0 C 141.48879,148 148,141.48879 148,133.40039 L 148,16.599609 C 148,8.5112133 141.48879,2 133.40039,2 L 16.599609,2 Z M 17.400391,3 132.59961,3 C 140.57721,3 147,9.4227944 147,17.400391 l 0,115.199219 C 147,140.57721 140.57721,147 132.59961,147 L 17.400391,147 C 9.4227944,147 3,140.57721 3,132.59961 L 3,17.400391 C 3,9.4227944 9.4227944,3 17.400391,3 Z"
       style="opacity:1;fill:#ffffff;fill-opacity:0.12999998"
       inkscape:connector-curvature="0" />
    <path
       id="rect4140-5"
       d="M 15.800781,1 C 7.6015853,1 1,7.6015853 1,15.800781 L 1,134.19922 C 1,142.39841 7.6015853,149 15.800781,149 l 118.398439,0 C 142.39841,149 149,142.39841 149,134.19922 L 149,15.800781 C 149,7.6015853 142.39841,1 134.19922,1 L 15.800781,1 Z M 16.599609,2 133.40039,2 C 141.48879,2 148,8.5112133 148,16.599609 l 0,116.800781 C 148,141.48879 141.48879,148 133.40039,148 L 16.599609,148 C 8.5112133,148 2,141.48879 2,133.40039 L 2,16.599609 C 2,8.5112133 8.5112133,2 16.599609,2 Z"
       style="opacity:1;fill:#ffffff;fill-opacity:0.18000004"
       inkscape:connector-curvature="0" />
    <path
       id="rect4140-7-4"
       d="M 17.400391,3 C 9.4227944,3 3,9.4227944 3,17.400391 L 3,132.59961 C 3,140.57721 9.4227944,147 17.400391,147 l 115.199219,0 C 140.57721,147 147,140.57721 147,132.59961 L 147,17.400391 C 147,9.4227944 140.57721,3 132.59961,3 L 17.400391,3 Z M 18.199219,4 131.80078,4 C 139.66758,4 146,10.332422 146,18.199219 l 0,113.601561 C 146,139.66758 139.66758,146 131.80078,146 L 18.199219,146 C 10.332422,146 4,139.66758 4,131.80078 L 4,18.199219 C 4,10.332422 10.332422,4 18.199219,4 Z"
       style="opacity:1;fill:#ffffff;fill-opacity:0.08999999"
       inkscape:connector-curvature="0" />
  </g>
  <rect
     style="opacity:0.65;fill:#000000;fill-opacity:1"
     id="rect4140-71-9"
     width="150.00006"
     height="150.00003"
     x="-189.64352"
     y="-271.38324"
     rx="14.999999"
     ry="14.999999" />
</svg>
